# xmcd
#
# Track frame offsets: 
#        150
#        13951
#        27885
#        40986
#        54760
#        68406
#        81793
#        95030
#        108274
#        122490
#        137238
#        152230
#        166272
#        179455
#        191045
#        202351
#        215770
#        229152
#        242046
#        255846
#        269510
#
# Disc length: 3771 seconds
#
# Revision: 1
# Processed by: cddbd v1.5.2PL0 Copyright (c) Steve Scherf et al.
# Submitted via: ExactAudioCopyFreeDBPlugin 1.0
#
DISCID=2b0eb915
DTITLE=Roy Eldridge - Swing Time 009 - Roy Eldridge 01 - 1935-39
DYEAR=1935
DGENRE=Jazz
TTITLE0=The Delta Four - Swingin' At That Famous Door
TTITLE1=The Delta Four - Farewell Blues
TTITLE2=Roy Eldridge And His Orchestra - Christopher Columbus
TTITLE3=Gene Krupa's Swing Band - I Hope Gabriel Likes My Music
TTITLE4=Gene Krupa's Swing Band - Mutiny In The Parlor
TTITLE5=Gene Krupa's Swing Band - I'm Gonna Clap My Hands
TTITLE6=Gene Krupa's Swing Band - Swing Is Here
TTITLE7=Teddy Wilson And His Orchestra - Mary Had A Little Lamb
TTITLE8=Teddy Wilson And His Orchestra - Too Good To Be True
TTITLE9=Teddy Wilson And His Orchestra - Warmin' Up
TTITLE10=Teddy Wilson And His Orchestra - Blues In C Sharp Minor
TTITLE11=Roy Eldridge And His Orchestra - Wabash Stomp
TTITLE12=Roy Eldridge And His Orchestra - Florida Stomp
TTITLE13=Roy Eldridge And His Orchestra - Heckler's Hop
TTITLE14=Roy Eldridge And His Orchestra - Where The Lazy River Goes By
TTITLE15=Roy Eldridge And His Orchestra - That Thing
TTITLE16=Roy Eldridge And His Orchestra - After You've Gone
TTITLE17=Roy Eldridge And His Orchestra - It's My Turn Now
TTITLE18=Roy Eldridge And His Orchestra - You're A Lucky Guy
TTITLE19=Roy Eldridge And His Orchestra - Pluckin' The Bass
TTITLE20=Roy Eldridge And His Orchestra - I'm Getting Sentimental Over
TTITLE20=You
EXTD=YEAR: 2006
EXTT0=
EXTT1=
EXTT2=
EXTT3=
EXTT4=
EXTT5=
EXTT6=
EXTT7=
EXTT8=
EXTT9=
EXTT10=
EXTT11=
EXTT12=
EXTT13=
EXTT14=
EXTT15=
EXTT16=
EXTT17=
EXTT18=
EXTT19=
EXTT20=
PLAYORDER=
